<svg width="82" height="90" viewBox="0 0 82 90" fill="none" xmlns="http://www.w3.org/2000/svg">
<g clip-path="url(#clip0_41_2229)">
<path d="M40.8727 24.7367C47.7036 24.7367 53.2411 19.1992 53.2411 12.3683C53.2411 5.5375 47.7036 0 40.8727 0C34.0419 0 28.5044 5.5375 28.5044 12.3683C28.5044 19.1992 34.0419 24.7367 40.8727 24.7367Z" fill="#FF931E"/>
<path d="M75.2631 50.6025C69.344 47.1905 61.7821 49.2224 58.37 55.1416C57.1953 57.1783 56.6676 59.4084 56.7178 61.5979C56.8419 67.0491 51.9399 69.8857 47.2791 67.0706C47.0953 66.9584 46.9066 66.8485 46.7156 66.7459C42.0023 64.1146 42.0047 58.5106 46.7204 55.8818C50.5813 53.7901 53.2054 49.7 53.2054 45.001C53.2054 44.9055 53.2006 44.8123 53.1983 44.7192L53.203 44.7264C53.0813 39.2681 57.9952 36.4339 62.6608 39.2705C66.3975 41.5388 71.2255 41.7513 75.2774 39.4089C81.1918 35.9921 83.2166 28.4255 79.7998 22.5111C76.3829 16.5967 68.8163 14.572 62.9019 17.9888C58.8524 20.3287 56.6294 24.6099 56.7225 28.977C56.8443 34.4234 51.9471 37.2576 47.2911 34.4473C45.4119 33.2964 43.2057 32.6326 40.8419 32.6326C38.478 32.6326 36.2718 33.2964 34.395 34.4449C29.7485 37.2457 24.8657 34.4162 24.9898 28.9818C25.0853 24.6051 22.8504 20.3144 18.789 17.9768C12.8674 14.572 5.30555 16.6111 1.90067 22.5326C-1.5042 28.4541 0.534902 36.016 6.45643 39.4209C10.5036 41.7489 15.3172 41.5316 19.0468 39.2705C23.7005 36.4458 28.6024 39.2776 28.4783 44.7216L28.4831 44.7144C28.4831 44.8099 28.4759 44.9055 28.4759 45.0033C28.4759 49.7048 31.0976 53.7925 34.9609 55.8842C39.679 58.5154 39.6767 64.1265 34.9562 66.753C34.7651 66.8557 34.5789 66.9655 34.395 67.0777C29.7485 69.8737 24.8681 67.0419 24.9922 61.6075C25.0448 59.4084 24.5123 57.1664 23.3304 55.1225C19.9064 49.2105 12.3397 47.1953 6.42777 50.6169C0.503861 54.0385 -1.51137 61.6051 1.91022 67.5171C5.3342 73.4291 12.9009 75.4443 18.8128 72.0227C18.8892 71.9773 18.9633 71.9296 19.0397 71.8842L19.0325 71.8938C23.6909 69.0667 28.5929 71.9009 28.4663 77.3473L28.4711 77.3401C28.4711 77.4404 28.464 77.5431 28.464 77.6434C28.4711 84.4746 34.013 90.0069 40.8442 89.9998C47.6755 89.9926 53.2078 84.4507 53.2006 77.6195C53.2006 77.5288 53.1959 77.438 53.1935 77.3473L53.1983 77.3545C53.0741 71.8938 57.9904 69.0572 62.6584 71.8938L62.6512 71.8818C62.7372 71.9343 62.8183 71.9869 62.9043 72.037C68.8234 75.4491 76.3853 73.4171 79.7974 67.498C83.2094 61.5788 81.1775 54.017 75.2583 50.6049L75.2631 50.6025Z" fill="#FF931E"/>
</g>
<defs>
<clipPath id="clip0_41_2229">
<rect width="81.2132" height="90" fill="white" transform="translate(0.243652)"/>
</clipPath>
</defs>
</svg>
